<svg id="visual" viewBox="0 0 900 600" width="900" height="600" xmlns="http://www.w3.org/2000/svg" xmlns:xlink="http://www.w3.org/1999/xlink" version="1.1"><rect x="0" y="0" width="900" height="600" fill="#12fdfd"></rect><path d="M0 354L16.7 359.3C33.3 364.7 66.7 375.3 100 371.3C133.3 367.3 166.7 348.7 200 347.3C233.3 346 266.7 362 300 365.3C333.3 368.7 366.7 359.3 400 352.3C433.3 345.3 466.7 340.7 500 339.2C533.3 337.7 566.7 339.3 600 344.3C633.3 349.3 666.7 357.7 700 364.5C733.3 371.3 766.7 376.7 800 371.8C833.3 367 866.7 352 883.3 344.5L900 337L900 601L883.3 601C866.7 601 833.3 601 800 601C766.7 601 733.3 601 700 601C666.7 601 633.3 601 600 601C566.7 601 533.3 601 500 601C466.7 601 433.3 601 400 601C366.7 601 333.3 601 300 601C266.7 601 233.3 601 200 601C166.7 601 133.3 601 100 601C66.7 601 33.3 601 16.7 601L0 601Z" fill="#84a4fc"></path><path d="M0 409L16.7 410.8C33.3 412.7 66.7 416.3 100 412.8C133.3 409.3 166.7 398.7 200 395.7C233.3 392.7 266.7 397.3 300 397.7C333.3 398 366.7 394 400 392.8C433.3 391.7 466.7 393.3 500 392.7C533.3 392 566.7 389 600 391.5C633.3 394 666.7 402 700 407.5C733.3 413 766.7 416 800 411.8C833.3 407.7 866.7 396.3 883.3 390.7L900 385L900 601L883.3 601C866.7 601 833.3 601 800 601C766.7 601 733.3 601 700 601C666.7 601 633.3 601 600 601C566.7 601 533.3 601 500 601C466.7 601 433.3 601 400 601C366.7 601 333.3 601 300 601C266.7 601 233.3 601 200 601C166.7 601 133.3 601 100 601C66.7 601 33.3 601 16.7 601L0 601Z" fill="#739cf1"></path><path d="M0 429L16.7 427.7C33.3 426.3 66.7 423.7 100 424C133.3 424.3 166.7 427.7 200 430.3C233.3 433 266.7 435 300 430.5C333.3 426 366.7 415 400 415.3C433.3 415.7 466.7 427.3 500 433.2C533.3 439 566.7 439 600 435.7C633.3 432.3 666.7 425.7 700 427.7C733.3 429.7 766.7 440.3 800 444.8C833.3 449.3 866.7 447.7 883.3 446.8L900 446L900 601L883.3 601C866.7 601 833.3 601 800 601C766.7 601 733.3 601 700 601C666.7 601 633.3 601 600 601C566.7 601 533.3 601 500 601C466.7 601 433.3 601 400 601C366.7 601 333.3 601 300 601C266.7 601 233.3 601 200 601C166.7 601 133.3 601 100 601C66.7 601 33.3 601 16.7 601L0 601Z" fill="#6295e6"></path><path d="M0 470L16.7 471C33.3 472 66.7 474 100 470.8C133.3 467.7 166.7 459.3 200 459.2C233.3 459 266.7 467 300 465.2C333.3 463.3 366.7 451.7 400 447.7C433.3 443.7 466.7 447.3 500 448.5C533.3 449.7 566.7 448.3 600 448.7C633.3 449 666.7 451 700 451.2C733.3 451.3 766.7 449.7 800 450.7C833.3 451.7 866.7 455.3 883.3 457.2L900 459L900 601L883.3 601C866.7 601 833.3 601 800 601C766.7 601 733.3 601 700 601C666.7 601 633.3 601 600 601C566.7 601 533.3 601 500 601C466.7 601 433.3 601 400 601C366.7 601 333.3 601 300 601C266.7 601 233.3 601 200 601C166.7 601 133.3 601 100 601C66.7 601 33.3 601 16.7 601L0 601Z" fill="#508dda"></path><path d="M0 477L16.7 482.8C33.3 488.7 66.7 500.3 100 505.7C133.3 511 166.7 510 200 504.2C233.3 498.3 266.7 487.7 300 481.7C333.3 475.7 366.7 474.3 400 473.8C433.3 473.3 466.7 473.7 500 475.8C533.3 478 566.7 482 600 486.5C633.3 491 666.7 496 700 498.7C733.3 501.3 766.7 501.7 800 496.8C833.3 492 866.7 482 883.3 477L900 472L900 601L883.3 601C866.7 601 833.3 601 800 601C766.7 601 733.3 601 700 601C666.7 601 633.3 601 600 601C566.7 601 533.3 601 500 601C466.7 601 433.3 601 400 601C366.7 601 333.3 601 300 601C266.7 601 233.3 601 200 601C166.7 601 133.3 601 100 601C66.7 601 33.3 601 16.7 601L0 601Z" fill="#3d85ce"></path><path d="M0 522L16.7 526.3C33.3 530.7 66.7 539.3 100 538.2C133.3 537 166.7 526 200 522.7C233.3 519.3 266.7 523.7 300 525C333.3 526.3 366.7 524.7 400 525.7C433.3 526.7 466.7 530.3 500 534.5C533.3 538.7 566.7 543.3 600 544.8C633.3 546.3 666.7 544.7 700 541.5C733.3 538.3 766.7 533.7 800 531C833.3 528.3 866.7 527.7 883.3 527.3L900 527L900 601L883.3 601C866.7 601 833.3 601 800 601C766.7 601 733.3 601 700 601C666.7 601 633.3 601 600 601C566.7 601 533.3 601 500 601C466.7 601 433.3 601 400 601C366.7 601 333.3 601 300 601C266.7 601 233.3 601 200 601C166.7 601 133.3 601 100 601C66.7 601 33.3 601 16.7 601L0 601Z" fill="#277ec2"></path><path d="M0 568L16.7 569C33.3 570 66.7 572 100 570.2C133.3 568.3 166.7 562.7 200 557.7C233.3 552.7 266.7 548.3 300 548.5C333.3 548.7 366.7 553.3 400 558C433.3 562.7 466.7 567.3 500 565.2C533.3 563 566.7 554 600 550.3C633.3 546.7 666.7 548.3 700 551.7C733.3 555 766.7 560 800 559.7C833.3 559.3 866.7 553.7 883.3 550.8L900 548L900 601L883.3 601C866.7 601 833.3 601 800 601C766.7 601 733.3 601 700 601C666.7 601 633.3 601 600 601C566.7 601 533.3 601 500 601C466.7 601 433.3 601 400 601C366.7 601 333.3 601 300 601C266.7 601 233.3 601 200 601C166.7 601 133.3 601 100 601C66.7 601 33.3 601 16.7 601L0 601Z" fill="#0076b6"></path></svg>